<svg id="Layer_1" data-name="Layer 1" xmlns="http://www.w3.org/2000/svg" viewBox="0 0 657.61 117.66"><defs><style>.cls-1{fill:#f9fbf2;}</style></defs><title>DZHIUNGLES f9fff3 (IVORY)</title><path class="cls-1" d="M1,1.59c0.32-.32.64-0.66,1-1A1.59,1.59,0,0,1,3.18,0,28.53,28.53,0,0,1,6.12.16,28,28,0,0,0,9.06.32c0.74,0,1.46,0,2.15-.08s1.4-.08,2.15-0.08q2.22,0,5.49.24t6.68,0.79q3.42,0.56,6.6,1.35a25.59,25.59,0,0,1,5.09,1.75Q37.68,4.61,40,6A42.1,42.1,0,0,1,44.92,9.7a39,39,0,0,1,4.85,4.93A10.53,10.53,0,0,1,52.31,20a90.58,90.58,0,0,0,3.1,14.07A49.31,49.31,0,0,1,57.56,48.5q0,2.23.16,4.21t0.16,4.21A47.3,47.3,0,0,1,56,70.28,73.36,73.36,0,0,1,51.2,82.52q-2.07,4.77-4.29,9.78a40.9,40.9,0,0,1-5.41,9,13.2,13.2,0,0,1-2.23,2.07,11.72,11.72,0,0,0-2.07,1.91,4.37,4.37,0,0,0-1.35,1.91,3.8,3.8,0,0,1-1.67,1.91,19.24,19.24,0,0,1-6.76,2.78,48.6,48.6,0,0,0-7.08,2c-0.85.85-1.41,1.43-1.67,1.75s-1.14.48-2.62,0.48c-0.53,0-1.09,0-1.67-.08s-1.14-.08-1.67-0.08a23.52,23.52,0,0,0-5.72.72,43.59,43.59,0,0,1-5.72,1l-1-.64a1.28,1.28,0,0,1,1.59-.79A4.24,4.24,0,0,0,4,116.07a6.24,6.24,0,0,0-1.91-.16H0a136,136,0,0,1,.87-15.34,133.66,133.66,0,0,0,.87-15q0-2.22-.24-4.61T1.27,76.32a76.84,76.84,0,0,1,.64-9.86,74.82,74.82,0,0,0,.64-9.54,42.42,42.42,0,0,0-.32-5.25,42,42,0,0,1-.32-5.25q0-2.7.24-5.25t0.24-5.25q0-6-.56-12t-0.56-12V3.5A6,6,0,0,0,1,1.59Zm4.56,108c0,0.42.32,0.64,1,.64a1.13,1.13,0,0,0,1.11-.79,1,1,0,0,0-1-.79A0.92,0.92,0,0,0,5.52,109.55ZM8.75,25.92a0.92,0.92,0,0,0-1,1.11,0.64,0.64,0,0,0,.64.79c0.64,0,1-.42,1-1.27A0.56,0.56,0,0,0,8.75,25.92Zm0,6.52a0.92,0.92,0,0,0-1,1.11C7.79,33.87,8,34,8.43,34s0.79-.37.79-1.11ZM8.11,25.12a1.24,1.24,0,0,0,1.11-1.43,7.47,7.47,0,0,0-.08-1,7.09,7.09,0,0,1-.08-1,1,1,0,0,0-.8.79,4.65,4.65,0,0,0-.16,1.11v1.59ZM10.18,91.9a1.86,1.86,0,0,0,.64,1.59v-1A11.47,11.47,0,0,0,10,88.4V91A2,2,0,0,0,10.18,91.9Zm0.16-81.73a0.78,0.78,0,0,0,1,.79,0.7,0.7,0,0,0,.8-0.79,0.78,0.78,0,0,0-1-.8,0.87,0.87,0,0,1-.56.32Q10.33,9.7,10.34,10.18Zm5.88-.8c0,0.11,0,.16-0.08.16s-0.08.05-.08,0.16a0.85,0.85,0,0,0,.48.64,1.52,1.52,0,0,0,.79.32,0.89,0.89,0,0,0,.32-0.48,0.84,0.84,0,0,0-1-1A0.65,0.65,0,0,1,16.22,9.38Zm2.07,0.21a2.65,2.65,0,0,0,2.38,1h0.79a1.76,1.76,0,0,0,.79-0.16A8.81,8.81,0,0,0,18.29,9.59Zm3,18.71v1.9q0,2.69.16,5.47t0.16,5.47a120.41,120.41,0,0,1-1.43,18.55,120.45,120.45,0,0,0-1.43,18.55c0,0.85,0,1.62.08,2.3s0.13,1.45.24,2.3c0.64-.32,1.44-0.69,2.41-1.11s2-.87,3-1.35,2-.95,2.8-1.43a9.1,9.1,0,0,0,1.93-1.35,6.06,6.06,0,0,0,1.68-2.93,5.63,5.63,0,0,1,1.85-2.93,9.94,9.94,0,0,1,1.2-3.41q0.88-1.51,1.84-3.09A27.12,27.12,0,0,0,37.44,62a9.67,9.67,0,0,0,.72-3.88,24.91,24.91,0,0,0-.16-2.7,24.13,24.13,0,0,1-.16-2.7c0-.74,0-1.45.08-2.14s0.08-1.4.08-2.14a33.33,33.33,0,0,0-.4-5.23q-0.4-2.53-1-5.07a10.86,10.86,0,0,1-2.49-3.49,22.09,22.09,0,0,0-1.61-3.17,7,7,0,0,0-2.57-2.38,10.55,10.55,0,0,0-5.05-1H23.07A9.21,9.21,0,0,0,21.31,28.3Zm0.16,67.26a0.92,0.92,0,0,0-.16.64,0.42,0.42,0,0,0,.48.48,0.78,0.78,0,0,0,.79-1l-0.32-.32A1.26,1.26,0,0,1,21.47,95.56Zm1.43-1.91c0,0.11,0,.16-0.08.16s-0.08.05-.08,0.16v0.16a0.42,0.42,0,0,0,.48.48,0.64,0.64,0,0,0,.64-0.79l-0.32-.32-0.32.16H22.9Zm0.48-3.82Q24,89.52,24.8,89.2a1.23,1.23,0,0,0,.72-1.59,1.07,1.07,0,0,1-.08-0.48,2.59,2.59,0,0,0-1.27,1.11A11.16,11.16,0,0,0,23.37,89.83ZM25.12,7.19a11.42,11.42,0,0,0,5.72,1.44,6.46,6.46,0,0,0-2.78-1A25.49,25.49,0,0,1,25.12,7.19ZM33.71,83a1.67,1.67,0,0,0-.64,1.43c0,0.42.16,0.64,0.48,0.64a0.79,0.79,0,0,0,.72-0.64,3,3,0,0,0,.24-1c0-.42-0.16-0.64-0.48-0.64-0.11,0-.16,0-0.16.08S33.81,83,33.71,83Zm1.11-66a1,1,0,0,0,.79,1.19,15.45,15.45,0,0,0,1.59.08,3.75,3.75,0,0,0,1-.16A1,1,0,0,0,39,17.27q-1.11-.16-2.07-0.24C36.25,17,35.56,17,34.82,17Zm2.38,64.3a0.64,0.64,0,0,0,.48.16c0.74,0,1.11-.53,1.11-1.59l-0.32-.32A1.2,1.2,0,0,0,37,80.77,0.66,0.66,0,0,1,37.21,81.25ZM38,78.86c0.1,0,.16,0,0.16.08S38.21,79,38.32,79a0.94,0.94,0,0,0,.79-0.48,1.72,1.72,0,0,0,.32-1A0.94,0.94,0,0,0,39,76.8a0.93,0.93,0,0,0-.79.48,1.7,1.7,0,0,0-.32,1v0.32a0.14,0.14,0,0,0,.16.16v0.16Zm4.13,4.29a1.37,1.37,0,0,0-.48,1c0,0.85.32,1.27,1,1.27a0.51,0.51,0,0,0,.48-0.32,1.43,1.43,0,0,0,.16-0.64A1.06,1.06,0,0,0,42.14,83.16Zm1.11-2.86a2.29,2.29,0,0,0,1.51-.79A4.36,4.36,0,0,0,45,77.75,3.21,3.21,0,0,1,44.12,79,3.19,3.19,0,0,0,43.25,80.29Z"/><path class="cls-1" d="M116.07,2.7h2.07a5.89,5.89,0,0,0,3.18-.79,2.15,2.15,0,0,0,1.59.64,11.75,11.75,0,0,1,1.91.16,2.52,2.52,0,0,1,1.59,1A5.49,5.49,0,0,1,127,6.84a12.8,12.8,0,0,1-.16,2.07,12.51,12.51,0,0,0-.16,2.07,25.69,25.69,0,0,0,.4,4.37,26.84,26.84,0,0,1,.4,4.53V21l0.64,0.79-2.39,4.77-3.26,6.52q-1.67,3.34-3,6.36A17.15,17.15,0,0,0,118,43.88c0,0.11,0,.37.08,0.8a8.65,8.65,0,0,1,.08,1A26.21,26.21,0,0,1,115.35,50l-3.26,4.21a14.12,14.12,0,0,0-2,3.26q-0.71,1.67-1.67,3.42-3.34,6.52-7,12.56A144.26,144.26,0,0,0,94.6,86.18,65.11,65.11,0,0,0,107.08,85a63.47,63.47,0,0,1,12.16-1.19,1.81,1.81,0,0,1,1.51.72,1.81,1.81,0,0,0,1.51.72,4.3,4.3,0,0,0,1.19-.16,4.38,4.38,0,0,1,1.19-.16q0.48,0,1.11,2.07T127,91.82q0.56,2.78,1,5.64a29.47,29.47,0,0,1,.48,4.61,8.54,8.54,0,0,1-.08,1.19,8.23,8.23,0,0,0-.08,1.19l1,1.75a3.42,3.42,0,0,0-.64,1.27l1.59,1.27a3.35,3.35,0,0,1-1.91,1.51,20.48,20.48,0,0,1-3.42,1,26.79,26.79,0,0,1-4.37.48q-2.38.08-4.61,0.08-2.71,0-4.77-.08t-3.18-.08a47.68,47.68,0,0,0-6.2.4,47.41,47.41,0,0,1-6.2.4,5.23,5.23,0,0,0-3.1,1,5,5,0,0,1-2.94,1,15.66,15.66,0,0,1-3.5-.4,15.86,15.86,0,0,0-3.5-.4,17.39,17.39,0,0,0-4.37.56,14.7,14.7,0,0,1-3.58.56,24.13,24.13,0,0,1-4.05-.4,2.36,2.36,0,0,1-2.31-2.46,61.5,61.5,0,0,1,.48-7.63,61.4,61.4,0,0,0,.48-7.63q0-2.06-.16-4.05T68.84,88.4A100.19,100.19,0,0,0,75.6,77a117,117,0,0,1,6.6-11.37q2.86-3.66,5.33-7.39t5-7.71c-0.53,0-.79-0.16-0.79-0.48a3.3,3.3,0,0,1,1-1.59q1-1.11,2.15-2.39a27.65,27.65,0,0,0,2.23-2.7A6.2,6.2,0,0,0,98.26,41a68.28,68.28,0,0,0,7.15-15.1,55.88,55.88,0,0,1-9.94,1.59q-4.85.32-9.94,0.32a14.71,14.71,0,0,0-3.74.48,14.75,14.75,0,0,1-3.74.48,4.28,4.28,0,0,1-1.19-.16,4.4,4.4,0,0,0-1.19-.16,2.11,2.11,0,0,0-1.27.48c-0.42.32-.79,0.58-1.11,0.79,0-.85,0-1.64.08-2.38s0.08-1.54.08-2.39A9,9,0,0,0,73,22.1,6.72,6.72,0,0,0,73.61,20a15.93,15.93,0,0,0,.16-2.23q0-3.66-.16-7.16T73.46,3.5a13.74,13.74,0,0,1,5.64-1q2.94,0.08,5.8.08,7.79,0,15.5.08T116.07,2.7ZM79.66,89.83L80,90q0.79,0,.79-1.11a0.91,0.91,0,0,0-.32-0.48,0.84,0.84,0,0,0-1,1A0.66,0.66,0,0,1,79.66,89.83ZM82.2,16.06a7.45,7.45,0,0,1-.08,1,7.11,7.11,0,0,0-.08,1q1.91-.48,3.82-0.79a20.49,20.49,0,0,0,3.66-1c-0.53,0-1.11,0-1.75.08s-1.27.08-1.91,0.08A11.77,11.77,0,0,1,82.2,16.06Zm0.32,6a1.53,1.53,0,0,0,1.11.48c0.53,0,.79-0.37.79-1.11,0-.32-0.21-0.48-0.64-0.48A1.06,1.06,0,0,0,82.52,22.1Zm3,61.21q-0.8,1.27-1.59,2.62a9.34,9.34,0,0,0-1.11,2.94,2.76,2.76,0,0,0,1.83-2.46A7,7,0,0,1,85.54,83.32Zm-2.07,19.56,0.48,1.75,1.91-1.43A13.18,13.18,0,0,1,83.47,102.87Zm2.39-6a1.07,1.07,0,0,0,.79.32,2.43,2.43,0,0,0,.87-0.24,0.77,0.77,0,0,0,.56-0.72c0-.42-0.32-0.64-1-0.64A1.12,1.12,0,0,0,85.86,96.83Zm0.64-75.68,0.32,1.27a22.63,22.63,0,0,0,2.31-.4,8,8,0,0,0,2.15-.87H86.49ZM88.4,96.35A14.53,14.53,0,0,1,91,96.27a2.7,2.7,0,0,0,2.31-1H90.95a7.06,7.06,0,0,0-1.51.16A1.43,1.43,0,0,0,88.4,96.35Zm16.54-76.8a5.72,5.72,0,0,0,1.51.4A13.27,13.27,0,0,0,108,20l0.48-1A12.13,12.13,0,0,0,104.94,19.56Zm0.32,78.55a7.63,7.63,0,0,0,1.51.16h1.51A5,5,0,0,0,110.1,98a2.54,2.54,0,0,0,1-1.51q-1.43.32-3,.56A7.41,7.41,0,0,0,105.26,98.1Zm9.38,0.79a2,2,0,0,0,1.59,1.11,8.48,8.48,0,0,1,1.91.48A4.87,4.87,0,0,0,114.64,98.9Zm1.27,3a0.84,0.84,0,0,0,1,1,1,1,0,0,0,0-1.91,0.69,0.69,0,0,0-.56.32A4.16,4.16,0,0,0,115.91,101.92Zm0.16-78.55q0.79-.79,1.51-1.59t1.35-1.59a2.06,2.06,0,0,0-1.75,1.19A14.72,14.72,0,0,1,116.07,23.37Zm0,73.14a5.62,5.62,0,0,0,4.29,2.7c-0.42-.74-0.74-1.27-1-1.59a2.33,2.33,0,0,0-.72-0.72,1.82,1.82,0,0,0-1-.24A12.81,12.81,0,0,1,116.07,96.51ZM117.66,94q0.32,0.32.87,1a1.5,1.5,0,0,0,.87.64,0.56,0.56,0,0,0,.64-0.64,1.29,1.29,0,0,1,.32-1h-2.7ZM121,98.1a0.92,0.92,0,0,0-.16.64,0.9,0.9,0,0,0,.87,1c0.58,0.05,1.09.08,1.51,0.08a4.71,4.71,0,0,0-.87-1.19A1.85,1.85,0,0,0,121,98.1Z"/><path class="cls-1" d="M175.53,2.23a4.93,4.93,0,0,1,2.07-.32q2.06,0,4.14.08t4.32,0.08A11.48,11.48,0,0,0,187.49,2a12,12,0,0,1,1.44-.08,17.89,17.89,0,0,1,5,.79l1-.64a5.26,5.26,0,0,1,1.6,2.46,15.27,15.27,0,0,1,.64,3.18q0.16,1.67.24,3.42t0.24,3q1.76,12.56,2.88,25t3.21,25l-1.28,1.27q0.32,2.55.48,5.09T203,75.84a13.86,13.86,0,0,1-.08,1.51,13.3,13.3,0,0,0-.08,1.51,60.56,60.56,0,0,0,.72,9.06,62.87,62.87,0,0,1,.72,9.38q0,3.18-.32,6.6a16.57,16.57,0,0,1-1.6,6q-0.8.48-1.93,1T198,112q-1.36.56-2.56,1a6.63,6.63,0,0,1-2,.4,15.89,15.89,0,0,1-5.53-1,4.19,4.19,0,0,1-2.8-4.37q0-3.5.16-7t0.32-7a5.64,5.64,0,0,1-2.23-2.78,10.76,10.76,0,0,1-.48-3.26,24.32,24.32,0,0,1,.16-2.7,25,25,0,0,0,.16-2.7,33.69,33.69,0,0,0-.72-6.92q-0.72-3.42-1.51-6.76a26,26,0,0,0-6.76.87,26,26,0,0,1-6.76.87,30.9,30.9,0,0,0-.16,3.1v3.1a35.32,35.32,0,0,0,.56,6.28,33.84,33.84,0,0,1,.56,6l-0.48,25.28q-1.11.16-2.07,0.24c-0.64.05-1.33,0.08-2.07,0.08a5.87,5.87,0,0,0-2.78.72,5.88,5.88,0,0,1-2.78.72,8.52,8.52,0,0,1-2.54-.4,8.48,8.48,0,0,0-2.54-.4q-1.43,0-2.94.08t-2.94.08a8.75,8.75,0,0,1-1.51-.16,0.91,0.91,0,0,1-.87-1,40,40,0,0,1,.79-8,40.09,40.09,0,0,0,.79-8q0-3.66-.16-7.47t-0.16-7.47a45,45,0,0,1,.4-5.88,44.15,44.15,0,0,0,.4-5.72q0-1.11-.08-2.23c-0.05-.74-0.08-1.48-0.08-2.23s0-1.46.08-2.15,0.08-1.4.08-2.15a34.14,34.14,0,0,0-.4-5.25,33.83,33.83,0,0,1-.4-5.25q0-1.91.08-3.82t0.08-3.82q0-5.09-.48-9.86t-1.27-9.7q-0.16-1.11-.56-3.1t-0.87-4.29q-0.48-2.3-.79-4.53A26.55,26.55,0,0,1,142,9.7a4.66,4.66,0,0,1,.16-1.59L141,8.27l-0.16-1.59a20.39,20.39,0,0,0,5.64-.8A54.58,54.58,0,0,1,152,4.61a19.59,19.59,0,0,1,3.5-.32A19.41,19.41,0,0,0,159,4a11.27,11.27,0,0,1,1.35,5,19.09,19.09,0,0,0,.87,5.17,42.44,42.44,0,0,1,1.35,6.76,60.28,60.28,0,0,1,.4,6.92,24.36,24.36,0,0,0,.56,5.25q0.56,2.55,1.27,5.17t1.43,5.17a24.78,24.78,0,0,1,.87,5.25,69.41,69.41,0,0,0,8.27-.56,21.38,21.38,0,0,0,7.79-2.31l0.32-2.86a8.12,8.12,0,0,1-.64-3q0-1.43-.16-3a47.69,47.69,0,0,0-1.11-8q-1-4.37-2.07-9t-2.23-9.14Q176.17,6.2,175.53,2.23Zm-28.14,8.9a0.92,0.92,0,0,0-.16.64,0.42,0.42,0,0,0,.48.48,0.7,0.7,0,0,0,.8-0.79A0.42,0.42,0,0,0,148,11l-0.32.16h-0.32Zm1.75,6.68a3.72,3.72,0,0,1-.08.72,3.57,3.57,0,0,0-.08.72,6.74,6.74,0,0,0,.79,3,2.57,2.57,0,0,1,.08-0.64,2.63,2.63,0,0,0,.08-0.64,5.53,5.53,0,0,0-.24-1.59Q149.46,18.6,149.14,17.81Zm2.54-5.25a10.82,10.82,0,0,1,.32,2.62q0,1.35,1.75,1.67V14.95Q153.75,12.56,151.68,12.56Zm0.64,17.33a6,6,0,0,1,.4,1.67,1.09,1.09,0,0,0,1,1,1.24,1.24,0,0,0,.16-0.48,1.22,1.22,0,0,1,.16-0.48,3.58,3.58,0,0,0-.16-1.11,3.49,3.49,0,0,1-.16-1.11Zm1.11-11.45a1.65,1.65,0,0,0-.16,1,3,3,0,0,0,1.27,2.54,10.47,10.47,0,0,0-.48-1.83Q153.75,19.24,153.43,18.44Zm0.64,21.94A2.63,2.63,0,0,1,154,41a2.55,2.55,0,0,0-.08.64,4.31,4.31,0,0,0,1.27,3.18V44.36a5.36,5.36,0,0,0-.4-2.07Q154.38,41.34,154.07,40.39Zm0.48,55.17c-0.11.42-.19,0.79-0.24,1.11a6.68,6.68,0,0,0-.08,1.11,6.4,6.4,0,0,0,.48,2.54,6.33,6.33,0,0,0,.64-2.86,2.64,2.64,0,0,0-.24-1A2.8,2.8,0,0,0,154.54,95.56Zm0,9.38,1,3.82,1-.32,1-.32a5,5,0,0,0-.32-2c-0.21-.48-0.48-1.14-0.79-2a1.49,1.49,0,0,1-.87.4A1.5,1.5,0,0,0,154.54,104.94Zm1-54.85a6.67,6.67,0,0,1,.08-1.11,6.93,6.93,0,0,0,.08-1.11,2.67,2.67,0,0,0-.16-0.79,2.59,2.59,0,0,1-.16-0.79,1.72,1.72,0,0,0-.48,1.27,3.42,3.42,0,0,0,.24,1.35A8,8,0,0,1,155.5,50.08Zm1,25.44a1.53,1.53,0,0,0-.48,1.11,3.49,3.49,0,0,0,.16,1.11c0.1,0.32.21,0.69,0.32,1.11a0.8,0.8,0,0,0,.56-0.72,6.67,6.67,0,0,0,.08-0.87,5.88,5.88,0,0,0-.08-1A1.19,1.19,0,0,0,156.45,75.52Zm4.66,29.26c-0.11.53-.21,1-0.32,1.51a5.89,5.89,0,0,1-.48,1.35c0.53-.1,1-0.21,1.43-0.32a6.1,6.1,0,0,0,1.27-.48Zm-0.68-32.6v1.75a52.88,52.88,0,0,0,.48,7.15,3.75,3.75,0,0,0,.79-1.67,10.33,10.33,0,0,0,.16-1.83,24.15,24.15,0,0,0-.16-2.78,23.58,23.58,0,0,1-.16-2.78,0.65,0.65,0,0,1-.48.16h-0.64Zm8.33-14.95a13.88,13.88,0,0,1,3.67-.48,5.31,5.31,0,0,0,3.35-1.11,14.56,14.56,0,0,1-3.83.48A4.32,4.32,0,0,0,168.76,57.24Zm4.16,4.29a7,7,0,0,1,1.11.08,6.65,6.65,0,0,0,1.11.08,2.63,2.63,0,0,0,2.39-1.27Zm4.52-5.72a1.72,1.72,0,0,0,1.27.48,3.5,3.5,0,0,0,1.67-.48,15.57,15.57,0,0,1,1.67-.79,6.65,6.65,0,0,1-1.11-.08,7,7,0,0,0-1.11-.08A2.66,2.66,0,0,0,177.44,55.81Zm10.81-40.23a1.7,1.7,0,0,1-.32-1,0.32,0.32,0,0,1,.08-0.24,0.33,0.33,0,0,0,.08-0.24c0-.32-0.53-0.79-1.59-1.43v0.79Q186.5,15.58,188.25,15.58Zm-1.43,13.67a27.38,27.38,0,0,1,.48,2.86,6.33,6.33,0,0,0,1,2.7V33.23a16,16,0,0,0-.16-2.23A2.36,2.36,0,0,0,186.82,29.26Zm1-10.81a13.25,13.25,0,0,0-.32,2.39,10.52,10.52,0,0,0,.49,3.26q0.48,1.51,1.14,3.1a6.4,6.4,0,0,0,.48-2.54,9.27,9.27,0,0,0-.56-3.26Q188.43,19.88,187.78,18.44Zm1.15-11.29-0.64,2.23,1.59,2.39V11a6,6,0,0,0-.32-1.91Zm0.32,53.74a4.92,4.92,0,0,0-.48,2.23,9.48,9.48,0,0,0,.48,3,8.91,8.91,0,0,0,.79-3.34A2.61,2.61,0,0,0,189.24,60.9Zm1.76,37v1.43q0,1.43,1.11,1.43a4.21,4.21,0,0,1-.32-1.59A1.44,1.44,0,0,0,191,97.94Zm0.27,8a0.65,0.65,0,0,0-.16.48c0,0.53.37,0.79,1.11,0.79a0.92,0.92,0,0,0,1-1.11,0.78,0.78,0,0,0-1-.8A0.85,0.85,0,0,0,191.27,105.89Z"/><path class="cls-1" d="M223.23,1.75a8.8,8.8,0,0,1,3.66.87A23.75,23.75,0,0,0,230.54,4a16.67,16.67,0,0,0,4.61.64,32.68,32.68,0,0,1,4.61.32c0,1.49.1,2.31,0.32,2.46a1.29,1.29,0,0,0,.79.24,1,1,0,0,1,.8.72,12.59,12.59,0,0,1,.32,3.74q0,2.23-.08,4.29t-0.08,4.29c0,0.53,0,1.09.08,1.67S242,23.48,242,24a53,53,0,0,1-.64,8.19q-0.64,4.05-1.35,8t-1.35,8a52.67,52.67,0,0,0-.64,8.19q0,1.59.08,3.1t0.08,3.1q0,4.93-.24,9.7T237.7,82V97.63a35.68,35.68,0,0,0,.48,5.88,35.77,35.77,0,0,1,.48,5.88q0,1.59-.08,3t-0.08,3l-1-1.11-0.32,1a31.79,31.79,0,0,0-6.68.72,31.78,31.78,0,0,1-6.68.72,9.9,9.9,0,0,1-2.39-.32,1.6,1.6,0,0,1-1.27-1.75,11.49,11.49,0,0,1,.16-1.91,11.75,11.75,0,0,0,.16-1.91,1.29,1.29,0,0,0-.48-1,1.89,1.89,0,0,1-.64-1,30.14,30.14,0,0,1-.64-6.52V95.4q0-7.31.72-14.63t0.72-14.63a11.3,11.3,0,0,0-.4-3,11.21,11.21,0,0,1-.4-3,1.26,1.26,0,0,1,.16-0.79,89.86,89.86,0,0,0,1.75-12q0.48-6.12.48-12.32,0-3.5-.08-6.84t-0.08-6.68a5.62,5.62,0,0,1-1.59-3.1,20.65,20.65,0,0,1-.32-3.58q0-1.59-.08-3.82a28.37,28.37,0,0,1,.16-4.29,10.52,10.52,0,0,1,1-3.5A2.53,2.53,0,0,1,223.23,1.75ZM227,20.35a3.23,3.23,0,0,0-.16,1v1a11.26,11.26,0,0,0,.08,1.43q0.08,0.64.24,1.43a3,3,0,0,0,.16-1.19V22.9A13.78,13.78,0,0,0,227,20.35Zm1.11,87a3,3,0,0,0,.79-2.23v-1.43a2.45,2.45,0,0,0-1.43,2.23A2,2,0,0,0,228.16,107.33Zm0.16-91.43a3.48,3.48,0,0,1,.56-1.19,2.27,2.27,0,0,0,.4-1.35,1.38,1.38,0,0,0-.64-1.11,1.16,1.16,0,0,0-1,1.11,3.42,3.42,0,0,0,.24,1.35A8.07,8.07,0,0,1,228.32,15.9Zm0.79,48q-0.32,3.34-.48,6.68t-0.32,6.68a19.37,19.37,0,0,0,1-4.53,45.49,45.49,0,0,0,.24-4.69q0-1.27-.08-2.07A15.68,15.68,0,0,0,229.11,63.92Zm1.75-35.14a8.54,8.54,0,0,1-.08,1.19,8.23,8.23,0,0,0-.08,1.19,17.67,17.67,0,0,1,1.43,3.34,31.13,31.13,0,0,1,.16-3.26,31.61,31.61,0,0,0,.16-3.26Zm0-5.88A1.85,1.85,0,0,0,232.14,21a5,5,0,0,0-.64-2.07,4.25,4.25,0,0,0-.56,1.91C230.89,21.57,230.86,22.26,230.86,22.9Zm1-9.54a5.06,5.06,0,0,1-.08.79,4.82,4.82,0,0,0-.08.79,8,8,0,0,0,.16,1.19Q232,17,232.29,17c0.64,0,1-.5,1.11-1.51a6.72,6.72,0,0,1,.48-2.15h-2.07Z"/><path class="cls-1" d="M256.14,3.82l6.44-1.91a23.36,23.36,0,0,1,6.6-1,8.7,8.7,0,0,1,3.74.56,2.79,2.79,0,0,1,1.35,1.35,15.82,15.82,0,0,1,.56,1.67A2.68,2.68,0,0,0,276,6q-0.32,3.34-.48,6.76t-0.16,6.76q0,5.57.4,11.21T276.5,42a47.19,47.19,0,0,1,.32,5.49,46.6,46.6,0,0,0,.32,5.49,28.45,28.45,0,0,0,1.19,5.25q0.87,2.71,1.83,5.41T282,69.09a46.74,46.74,0,0,1,1.35,5.33,13.43,13.43,0,0,0,1.43,1.27c0.42,0.32.9,0.69,1.43,1.11a9.84,9.84,0,0,0,3.34-3.42,20.33,20.33,0,0,0,2-4.53,25.35,25.35,0,0,0,1-4.93q0.24-2.54.24-4.77a8.86,8.86,0,0,0-.24-2,8.82,8.82,0,0,1-.24-2,26.56,26.56,0,0,1,.87-6.6,25,25,0,0,0,.87-6.12v-18a68,68,0,0,0-.56-8.74A67.68,67.68,0,0,1,292.87,7a3.39,3.39,0,0,1,1-2.62A6.55,6.55,0,0,1,296.21,3a13.92,13.92,0,0,1,3-.64,19.78,19.78,0,0,0,2.86-.48,2.78,2.78,0,0,1,1.35-.79A7,7,0,0,1,305,1a10.52,10.52,0,0,1,2.54.32,10.35,10.35,0,0,0,2.54.32q-0.16,1.75-.24,3.5t-0.08,3.5a40.59,40.59,0,0,0,.32,5.09,41.23,41.23,0,0,1,.32,5.09,24.23,24.23,0,0,1-.16,2.78,23.61,23.61,0,0,0-.16,2.78v6.84A20.49,20.49,0,0,0,310.6,36a20.66,20.66,0,0,1,.56,4.85q0,2.38-.16,4.77t-0.16,4.77q0,2.39.24,4.85t0.24,4.85a9.85,9.85,0,0,1-.08,1.35,9.52,9.52,0,0,0-.08,1.35q0,3,.08,5.88t0.08,5.88q0,4.61-.08,8.9a43.89,43.89,0,0,1-.87,8.11A33.77,33.77,0,0,1,307.9,99a25.49,25.49,0,0,1-4.69,6.76,6.05,6.05,0,0,0-1,1.35,13,13,0,0,0-.72,1.51,17.28,17.28,0,0,0-3.66,1.51q-1.91,1-3.74,2.07t-3.42,1.75a6.86,6.86,0,0,1-2.7.72,41.68,41.68,0,0,1-4.45-.24q-2.23-.24-4.45-0.4a7.54,7.54,0,0,0-1.83-1,6.53,6.53,0,0,0-2-.24,3.66,3.66,0,0,1-1.11-1.35,11.4,11.4,0,0,0-.72-1.35,16.5,16.5,0,0,0-1-1.43,9.27,9.27,0,0,0-2.07-1.75,7.34,7.34,0,0,1-3.5-3.82,37.3,37.3,0,0,1-1.11-5.09,11.45,11.45,0,0,0-1.35-3.9,20.92,20.92,0,0,1-1.67-3.74,27.93,27.93,0,0,1-1.35-8,45.64,45.64,0,0,0-.87-8q-1.27-5.88-2.39-11.85a65.21,65.21,0,0,1-1.11-12c0-1,0-1.88.08-2.78s0.08-1.83.08-2.78q0-6.68-.64-13.28t-0.64-13.28V12.88a5.26,5.26,0,0,0-.32-1.59h1l-1.43-4a13.66,13.66,0,0,0,.56-1.75A13.42,13.42,0,0,1,256.14,3.82Zm6,11.77a1.3,1.3,0,0,0-.48.79c0,0.32.26,0.48,0.79,0.48a1.08,1.08,0,0,0,.32-0.79A2.57,2.57,0,0,0,262.19,15.58Zm2.7,21.78q0,1.91.08,3.82a18.91,18.91,0,0,0,.56,3.82,8.19,8.19,0,0,0,.16-1.59V41.82A10.81,10.81,0,0,0,264.89,37.37Zm2.39-13q0.16-1,.24-1.83c0.05-.58.08-1.19,0.08-1.83V19.24a5,5,0,0,0-.79,2.7A6,6,0,0,0,267.27,24.33ZM270,8.27l-0.32,1-0.32,1,0.79,0.64a5.07,5.07,0,0,0,.32-1.43A1.53,1.53,0,0,0,270,8.27Zm3,80.61a0.46,0.46,0,0,0-.16.32v0.16a0.42,0.42,0,0,0,.48.48A0.56,0.56,0,0,0,274,89.2a0.42,0.42,0,0,0-.48-0.48l-0.32.16H273Zm0.48-26.23v1.59a20.16,20.16,0,0,0,.79,5.41,4,4,0,0,0,1-2.7A5.85,5.85,0,0,0,273.47,62.65Zm3.66,13.67a8.46,8.46,0,0,0,.4,2.54q0.4,1.27.87,2.54a1.08,1.08,0,0,1,.79-0.32c0.32,0,.48-0.1.48-0.32a6.18,6.18,0,0,0-.79-2.54A3.49,3.49,0,0,0,277.13,76.32Zm0.79,26.24c0.21-.64.42-1.3,0.64-2a7.28,7.28,0,0,0,.32-2.15V97.79a2.57,2.57,0,0,0-1.43,2.38,4.28,4.28,0,0,0,.16,1.19Q277.77,101.92,277.93,102.56Zm2.86-5.41v3.18c0,0.32.05,1.09,0.16,2.31s0.42,1.83,1,1.83a2,2,0,0,0,.16-0.87v-0.87a10.73,10.73,0,0,0-.4-2.86Q281.26,98.42,280.79,97.15ZM282.86,87a1.7,1.7,0,0,0,.72-1.19c0.05-.48.13-1,0.24-1.51a1.25,1.25,0,0,0-1.11,1.43V86.5A0.64,0.64,0,0,0,282.86,87ZM284,89.83a0.65,0.65,0,0,0-.16.48v0.64a3,3,0,0,0,1,2.23V91.9A2.8,2.8,0,0,0,284,89.83Zm2.54-2.54q-0.16.8-.24,1.35a9.52,9.52,0,0,0-.08,1.35c0,0.53,0,1.09.08,1.67a15.45,15.45,0,0,0,.24,1.67,3.75,3.75,0,0,0,.8-1.67,9.5,9.5,0,0,0,.16-1.67V86.66A0.89,0.89,0,0,1,287,87,0.89,0.89,0,0,0,286.51,87.29ZM294,90.47a1.91,1.91,0,0,0,.72-1,4.27,4.27,0,0,0,.24-1.35,0.46,0.46,0,0,0-.24-0.16,0.43,0.43,0,0,1-.24-0.16,0.87,0.87,0,0,0-.72.79,4.65,4.65,0,0,0-.24,1.11A1.3,1.3,0,0,0,294,90.47ZM296.21,101h0.32a1.14,1.14,0,0,0,.87-0.48,1.5,1.5,0,0,0,.4-1l-0.32-.32a1,1,0,0,0-1,.56A2.36,2.36,0,0,0,296.21,101Zm3.18-60.9a6.82,6.82,0,0,0-.48,2.39,1.86,1.86,0,0,0,.64,1.59,5,5,0,0,1,.16-1.35,5,5,0,0,0,.16-1.35A1.72,1.72,0,0,0,299.39,40.07Zm1.91,43.25a5.34,5.34,0,0,0,.56-2q0.08-1,.08-2V78.07a7.25,7.25,0,0,0-1,3.5A5.52,5.52,0,0,0,301.3,83.32Zm4-46.59a4.24,4.24,0,0,0-.48,1.91,3.79,3.79,0,0,0,1,2.54,2,2,0,0,0,.16-0.87V39.43A5.39,5.39,0,0,0,305.27,36.73Z"/><path class="cls-1" d="M363.78,1.59l0.64,1.27a27,27,0,0,1,5.33-.72q2.62-.08,5.33-0.08a9.49,9.49,0,0,1,5.17,1.11q1.67,1.11,3.58,4.93A7.28,7.28,0,0,0,382,11.37a13.35,13.35,0,0,0-.56,3.58q0,13.36.24,26.55t1.19,26.55l0.79,0.64a23.48,23.48,0,0,0-.48,4.61,87.87,87.87,0,0,0,1.51,16.3,88.08,88.08,0,0,1,1.51,16.3,24.07,24.07,0,0,1-.4,4.37,9.65,9.65,0,0,1-1.83,4.05,30.71,30.71,0,0,1-3.82-.24,30.71,30.71,0,0,0-3.82-.24,20.29,20.29,0,0,0-2.62.16,6.26,6.26,0,0,0-2.46,1,6.15,6.15,0,0,0-2.7-1.19c-1-.16-1.91-0.34-2.86-0.56a38.31,38.31,0,0,1-3.5-6.28q-1.43-3.26-2.7-6.6a24.66,24.66,0,0,0-2.15-4.21A8.11,8.11,0,0,1,356,91.74V91.11a1.42,1.42,0,0,1,.16-0.64,12.22,12.22,0,0,1-2.46-4.53,21.66,21.66,0,0,0-2-4.69,59.64,59.64,0,0,1-3.1-6.12Q347.25,72,346,68.85a47.94,47.94,0,0,0-.79,6.76Q345,79,345,82.52q0,4.61.08,9t0.08,8.82v3.82q0,1.91-.16,3.82a6.88,6.88,0,0,1-.64,2.23,4.92,4.92,0,0,0-.48,2.23,2.71,2.71,0,0,0,.16,1.11,4.68,4.68,0,0,1-2.7,2,13.82,13.82,0,0,1-3.34.4q-1.91,0-3.34-.08a21.33,21.33,0,0,1-2.7-.32,17.57,17.57,0,0,1-2.62-.72q-1.35-.48-3.1-1.27V100.17a46.38,46.38,0,0,0-.32-5.41,45.9,45.9,0,0,1-.32-5.41V59.15a36.41,36.41,0,0,1,.64-6.84,36.59,36.59,0,0,0,.64-6.84V15.1a15.59,15.59,0,0,0-.48-3.34,17.67,17.67,0,0,1-.48-4v-1a3.22,3.22,0,0,1,.16-1q3-1,7.47-2.07A31.88,31.88,0,0,1,341,2.54a1.44,1.44,0,0,1,.64.16,0.51,0.51,0,0,1,.32.48l-0.32.64a4.35,4.35,0,0,1,2,2.31,21.62,21.62,0,0,1,1.19,3.82q0.48,2.15.87,4.21a13.06,13.06,0,0,0,1,3.34q1.43,3,2.63,6.12T352,29.73q0.79,1.75,1.67,4.29t1.83,5.25q1,2.71,2.07,5.09a9.3,9.3,0,0,0,2.54,3.5Q360,39.43,360,31.24V14.63a13.85,13.85,0,0,1,.32-3,14,14,0,0,0,.32-3,4.36,4.36,0,0,0-.16-1.19,4.33,4.33,0,0,1-.16-1.19,2,2,0,0,1,.56-1.59A5.87,5.87,0,0,1,362,3.82,5.87,5.87,0,0,0,363.23,3,1.78,1.78,0,0,0,363.78,1.59ZM331.35,106.85l0.32,2.07a0.68,0.68,0,0,0,.72-0.72,2.62,2.62,0,0,1,.4-1.19H332A0.91,0.91,0,0,1,331.35,106.85Zm2.38-86.5v1.91q0,1.11,1.59,1.43a8.64,8.64,0,0,0,.16-1.67V20.35h-1.75ZM335.16,103a1.25,1.25,0,0,0-1,1.27,0.85,0.85,0,0,0,.64,1q0.79-.16.79-1.43A0.94,0.94,0,0,0,335.16,103Zm1.27-90-0.32,2.86a2.38,2.38,0,0,0,.64.48,2.58,2.58,0,0,1,.64.48c-0.11-.64-0.21-1.3-0.32-2A5,5,0,0,0,336.44,13Zm1.27,30.53,0.64,0.64a6.23,6.23,0,0,0,1.11-3.66,4.92,4.92,0,0,0-.48-2.23,4.17,4.17,0,0,0-1,2.54Q337.87,42.29,337.71,43.57Zm1.91,46.91q-0.16,1-.24,2c-0.05.69-.08,1.35-0.08,2a27.14,27.14,0,0,0,.16,3,27.78,27.78,0,0,1,.16,3q0-1.75.16-3.34t0.16-3.34q0-.79-0.08-1.67T339.62,90.47ZM350.11,55a5.59,5.59,0,0,1,1.75.32c-0.21-.42-0.4-0.82-0.56-1.19a1.76,1.76,0,0,0-.87-0.87,1.53,1.53,0,0,0-.48,1.11V54.7c0,0.11,0,.16.08,0.16S350.11,54.91,350.11,55Zm18.13,33.71a8.77,8.77,0,0,1-.08,1.19,8.23,8.23,0,0,0-.08,1.19,4.79,4.79,0,0,0,.08.79,0.44,0.44,0,0,0,.4.48,3.09,3.09,0,0,0,1.59-.64Zm0.48-16.54a2.75,2.75,0,0,1,1.51,1.35,7.38,7.38,0,0,1,.56,1.91q0.16,1,.32,2.07a6.65,6.65,0,0,0,.63,2,22.43,22.43,0,0,1-.48-4.69A7.7,7.7,0,0,0,370,70.44a5.08,5.08,0,0,0-.64.79Zm3.5,28.94,2.22,1.91a9.44,9.44,0,0,1-.48-1.51,10.14,10.14,0,0,0-.48-1.51Zm0.32,1.75a8.77,8.77,0,0,1-.08,1.19,8.23,8.23,0,0,0-.08,1.19,8.32,8.32,0,0,1,1.51.8,8.21,8.21,0,0,0,1.51.79,6.62,6.62,0,0,0-1.27-2.15Q373.32,103.83,372.53,102.87Zm1-59.63a0.78,0.78,0,0,0-.79,1,0.64,0.64,0,0,0,.63.79,0.78,0.78,0,0,0,.79-1A0.64,0.64,0,0,0,373.48,43.25Zm0.63,38.48a1.42,1.42,0,0,0-.16.64V83a5.87,5.87,0,0,0,.4,2.15,6.66,6.66,0,0,0,1,1.83,11,11,0,0,1-.32-2.7A3.8,3.8,0,0,0,374.12,81.73Zm1.11-3.82A1.13,1.13,0,0,0,376,76.8a3.07,3.07,0,0,0-.16-1,6.57,6.57,0,0,0-.32-0.8,1.44,1.44,0,0,0-.79,1.27A2.58,2.58,0,0,0,375.23,77.91Z"/><path class="cls-1" d="M412.44,4.77a10.85,10.85,0,0,0,2.38-.4q1.59-.39,2.54-0.72A47.1,47.1,0,0,1,422.93,3q2.86-.16,5.57-0.16a12.38,12.38,0,0,1,5.25,1A26,26,0,0,1,438,6.36q2,1.43,4,3.1a18.48,18.48,0,0,0,4.53,2.78v1.91a31,31,0,0,1-.4,4.53q-0.4,2.62-1,5.09T444,27.9q-0.56,1.67-.87,1.67a3.29,3.29,0,0,1-2-.8q-1-.79-2.23-1.67a22,22,0,0,0-2.7-1.67,7.24,7.24,0,0,0-3.42-.79,12.11,12.11,0,0,0-9.14,3.74,27.65,27.65,0,0,0-5.72,9.3,53.13,53.13,0,0,0-3,11.85A84,84,0,0,0,414,61.06,32.93,32.93,0,0,0,417.45,76q3.42,6.84,7.55,13.52a21.86,21.86,0,0,0,1.43,1.91,2.56,2.56,0,0,0,2.07,1,5.65,5.65,0,0,0,4.37-2.07,17.26,17.26,0,0,0,3-5,34,34,0,0,0,1.83-6.12q0.63-3.18,1-5.41a3.56,3.56,0,0,0-1.59-.32h-4.13a24.12,24.12,0,0,0-4.37.4,8.53,8.53,0,0,0-3.9,1.83,7.38,7.38,0,0,1-1-3.5q-0.24-2.38-.24-3.82a15.09,15.09,0,0,1,.24-2.62,15,15,0,0,0,.24-2.62,10.18,10.18,0,0,0-.71-3.74,10.16,10.16,0,0,1-.72-3.74,5.82,5.82,0,0,1,.72-3.26A3.71,3.71,0,0,1,425,51a9.16,9.16,0,0,1,2.54-.48,17.42,17.42,0,0,0,2.86-.4q1.43-.32,2.7-0.56a14.67,14.67,0,0,1,2.7-.24,21.41,21.41,0,0,1,8.74,1.83,63.39,63.39,0,0,1,8,4.21,4.14,4.14,0,0,0,.64-0.4,1.05,1.05,0,0,1,.64-0.24c0.32,0,.56.37,0.71,1.11a25.5,25.5,0,0,1,.4,2.62c0.1,1,.24,2,0.4,2.86a5.3,5.3,0,0,0,.56,1.83v3q0,6.2-.24,11.85a60.61,60.61,0,0,1-1.43,10.89,42.65,42.65,0,0,1-3.58,9.94,30.9,30.9,0,0,1-6.68,8.67,4.31,4.31,0,0,0-1.43,2.07,2.84,2.84,0,0,1-1.59,1.75,24.88,24.88,0,0,1-7.47,1.91,70,70,0,0,1-7.63.48,2.32,2.32,0,0,1-1.19-.48l-1.19-.79-1.27.79q-0.64-.63-1.91-1.67a29.13,29.13,0,0,0-2.78-2l-2.94-1.83q-1.43-.87-2.38-1.35a91.35,91.35,0,0,1-6.44-11.21,85.94,85.94,0,0,1-4.37-11,80.85,80.85,0,0,1-2.7-11.13q-1-5.64-1.59-11.85-0.32-1.91-.48-4t-0.16-4a39.8,39.8,0,0,1,.88-8.27,40.73,40.73,0,0,0,.87-8.43,51.13,51.13,0,0,1,.79-8.27,53.14,53.14,0,0,1,2.46-9.38,43.63,43.63,0,0,1,4.13-8.51,16.86,16.86,0,0,1,5.8-5.8A2.7,2.7,0,0,0,412.44,4.77Zm-9.06,57.08a0.75,0.75,0,0,0,.64-0.79,3,3,0,0,0-.24-1.19,3,3,0,0,1-.24-1.19,4.38,4.38,0,0,1-.16,1.19,4.32,4.32,0,0,0-.16,1.19,0.91,0.91,0,0,0,.16.64v0.16Zm0.79-18.13a1,1,0,0,0,.64-1.11c0-.42-0.16-0.64-0.48-0.64a0.51,0.51,0,0,0-.48.32,1.4,1.4,0,0,0-.16.64A1.3,1.3,0,0,0,404.17,43.73Zm0.48-4.61q-0.16.32-.32,0.72c-0.11.27-.21,0.56-0.32,0.87l1.27,0.48a5.26,5.26,0,0,0,.32-1.59ZM408,57.24a9.92,9.92,0,0,1,1-3.66,8.1,8.1,0,0,0,.88-3.66,9.51,9.51,0,0,0-2.07,6.2v0.79c0,0.11,0,.16.08,0.16S408,57.14,408,57.24ZM408.78,45h0.32a1.94,1.94,0,0,0,.48-1.43l-0.32-1.11a1.11,1.11,0,0,0-.64,1.27,2.52,2.52,0,0,0,.08.64A2.64,2.64,0,0,1,408.78,45Zm0.79-4.45a0.65,0.65,0,0,0-.16.48,3.33,3.33,0,0,0,.16.87,0.64,0.64,0,0,0,.64.56,0.56,0.56,0,0,0,.64-0.64A1.12,1.12,0,0,0,409.58,40.54Zm6.68,57.08h1A8,8,0,0,1,417,96V94.45a3.84,3.84,0,0,0-.56,1.59C416.44,96.57,416.36,97.1,416.25,97.63Zm1.91-81.88a0.56,0.56,0,0,0-.64.64,0.51,0.51,0,0,0,.48.56,4.79,4.79,0,0,0,.79.08q1,0,1-.64a0.58,0.58,0,0,0-.64-0.56A8.76,8.76,0,0,0,418.16,15.74Zm4.77,87.77v-1.59a1.51,1.51,0,0,0-.64-1.27,1.56,1.56,0,0,0-.79,1.43A1.26,1.26,0,0,0,422.93,103.51Zm1.91-4.13,1.75-1a2.14,2.14,0,0,0-.4-0.56,2.07,2.07,0,0,1-.4-0.56l-0.72.72a1.22,1.22,0,0,0-.4.87v0.32Zm1.27-87.93a4.53,4.53,0,0,0,3.34,1.11,2.49,2.49,0,0,0-1.51-1A10.4,10.4,0,0,0,426.11,11.45Zm0.48-3c0.21,0.21.48,0.45,0.79,0.72a1.49,1.49,0,0,0,1,.4A0.92,0.92,0,0,0,429,9.38a1.19,1.19,0,0,0-.64-1,2.2,2.2,0,0,0-1.11-.4,0.46,0.46,0,0,1-.32.16l-0.16.16Zm5.25,7.79v0.32a0.92,0.92,0,0,0,.56.79,1.93,1.93,0,0,0,.87.32A0.56,0.56,0,0,0,433.9,17a1.06,1.06,0,0,0-1.27-1.11,0.92,0.92,0,0,1-.64.16Zm2.54,44-0.64.79a7.51,7.51,0,0,0,2.7.64h1a14.68,14.68,0,0,0-1.51-.79Zm0.32,3.34a5.27,5.27,0,0,0,2.86.79l-0.48-1.11Zm0.64-8.9a12.18,12.18,0,0,1,5.25,2.07,3.14,3.14,0,0,0-1.19-1.83,4.57,4.57,0,0,0-2.15-.4,5.88,5.88,0,0,0-1,.08A5.62,5.62,0,0,1,435.33,54.7Zm1.43-36.57a0.92,0.92,0,0,0-.16.64,1.54,1.54,0,0,0,.87,1.43,3.48,3.48,0,0,0,1.67.48,1.91,1.91,0,0,0-.79-1.67A8.12,8.12,0,0,0,436.76,18.13Zm1.59,81.41a4.65,4.65,0,0,0-1.11,2.86,1.64,1.64,0,0,0,.16,1q0.48-.63.87-1.19a2.27,2.27,0,0,0,.4-1.35,1.44,1.44,0,0,0-.16-0.64A1.4,1.4,0,0,1,438.35,99.53Zm-0.64-31.8a12.56,12.56,0,0,0,2.31,1A6.59,6.59,0,0,1,442.17,70l0.48-2.23-1.59.48a7.27,7.27,0,0,0-2.38-.64,0.93,0.93,0,0,0-.64.16h-0.32Zm0,29.73L439,97.94l-0.32,1.43a3.27,3.27,0,0,0,.79-2.15,8.29,8.29,0,0,1,.32-2.31,12.14,12.14,0,0,0-1.11,1.27Zm2.23-35.93c0,0.11,0,.16-0.08.16s-0.08.05-.08,0.16a0.76,0.76,0,0,0,.48.72,1.87,1.87,0,0,0,.79.24,0.64,0.64,0,0,0,.8-0.64,0.69,0.69,0,0,0-.48-0.56,1.88,1.88,0,0,0-.79-0.24A0.92,0.92,0,0,1,439.94,61.53Zm1.43-6a1.92,1.92,0,0,0,1,1.67,7.16,7.16,0,0,0,2,.56A3.23,3.23,0,0,0,443,56.29,16.08,16.08,0,0,0,441.38,55.49ZM448.85,79a11.07,11.07,0,0,0-.48,1.43c-0.11.42-.21,0.9-0.32,1.43a1.2,1.2,0,0,0,1.27-1.43A1.94,1.94,0,0,0,448.85,79Z"/><path class="cls-1" d="M482.35,5.56a1.76,1.76,0,0,1,1.76-1.11,2.37,2.37,0,0,1,1.92,1,7.07,7.07,0,0,1,1.2,2.7,24.11,24.11,0,0,1,.56,3.66q0.16,2,.16,3.9,0,1.75-.08,3.18c-0.05,1-.08,1.7-0.08,2.23a9.9,9.9,0,0,0,.08,1.27,10.52,10.52,0,0,1,.08,1.27V42.14q0,9.86.88,19.56t1.83,19.56a14.72,14.72,0,0,0,1,4.29q2.7,0.16,5.09.16h5.09a24.76,24.76,0,0,1,6.84,1,24.78,24.78,0,0,0,6.84,1,13.17,13.17,0,0,0,2.39-.16A4.34,4.34,0,0,0,521,89.2q1.83,0.16,3.58.16h1.59a13.54,13.54,0,0,0-.32,2.54,56.54,56.54,0,0,0,.56,8,56.88,56.88,0,0,1,.56,8,27.74,27.74,0,0,1-.16,3,9.7,9.7,0,0,1-.79,2.86q-1.75.32-3.42,0.79a12.4,12.4,0,0,1-3.42.48,7,7,0,0,1-3.18-.72,7,7,0,0,0-3.18-.72,11.26,11.26,0,0,0-4.77,1,36.87,36.87,0,0,0-4.77-.64q-2.39-.16-4.77-0.16-6.52,0-13.4.16a53.24,53.24,0,0,0-13.13,1.91,2.18,2.18,0,0,1-1.36-1.51,16.61,16.61,0,0,1-.64-2.7,18.6,18.6,0,0,1-.24-2.94v-13A102.46,102.46,0,0,0,469,84.43a102,102,0,0,1-.64-11.29,24.21,24.21,0,0,1,.16-2.7,25.13,25.13,0,0,0,.16-2.7A75.63,75.63,0,0,0,467.29,53a76.42,76.42,0,0,1-1.43-14.87q0-3.18-.16-6.36t-0.16-6.36q0-2.38.16-5.09a17.58,17.58,0,0,1,1-4.93,2.7,2.7,0,0,0-.16-0.64,2.57,2.57,0,0,1-.16-0.64c0-.42,0-1.06.08-1.91a22.64,22.64,0,0,1,.32-2.62,17.45,17.45,0,0,1,.64-2.54,2.93,2.93,0,0,1,.88-1.51,15.77,15.77,0,0,0,2.24.16h2.24a17.16,17.16,0,0,0,3.36-.32,17.29,17.29,0,0,1,3.36-.32,6.09,6.09,0,0,1,1.44.16C481.34,5.35,481.82,5.46,482.35,5.56Zm-9.5,44.68a11,11,0,0,1,.24,2.94,6.3,6.3,0,0,0,.56,2.94,1.43,1.43,0,0,0,1-1.67,5,5,0,0,1,.24-2.15A18.94,18.94,0,0,1,472.86,50.24Zm3,39.27a24.89,24.89,0,0,1-.16,2.7,24.42,24.42,0,0,0-.16,2.7,16.79,16.79,0,0,0,.16,2.39,6.21,6.21,0,0,0,.79,2.23,8.87,8.87,0,0,0,.72-2c0.16-.69.34-1.35,0.56-2a16.72,16.72,0,0,1-.64-3.18A5.06,5.06,0,0,0,475.88,89.52Zm0.48-59.94a2.11,2.11,0,0,1-.24,1,2.48,2.48,0,0,0-.24,1.11,2.19,2.19,0,0,0,.79,1.43,19.59,19.59,0,0,1,.35-3.74,19.65,19.65,0,0,0,.35-3.74V24.33a4.52,4.52,0,0,0-.94,2.54Q476.35,28.3,476.35,29.57Zm0.71-14.15a4.3,4.3,0,0,0-.39,1.43,2.94,2.94,0,0,0,1.18,2.39,1.37,1.37,0,0,0,.48-1c-0.21-.53-0.42-1-0.64-1.43S477.27,16,477.06,15.42Zm0.57,89.36a1.07,1.07,0,0,0-.32.79,0.81,0.81,0,1,0,.79-1A0.65,0.65,0,0,1,477.63,104.78Zm-0.16-2.54a4.35,4.35,0,0,1,.64.4,4,4,0,0,0,.64.4l1.91-.48a7.35,7.35,0,0,0-2.54-3c-0.11.53-.21,1-0.32,1.35S477.57,101.71,477.47,102.24Zm1.75-89.83a1,1,0,0,0,1-.72q0.32-.72.48-1.19a2.53,2.53,0,0,1-.64-0.08,2.66,2.66,0,0,0-.64-0.08,8.57,8.57,0,0,0-1,.08,0.65,0.65,0,0,0-.64.72,1.26,1.26,0,0,0,.56.79A1.58,1.58,0,0,0,479.22,12.4Zm3.18,87.77a2.07,2.07,0,0,0,2.38,2.07,4.24,4.24,0,0,0,1.91-.48,2.13,2.13,0,0,0-1.43-1.35,8.5,8.5,0,0,0-2.07-.24H482.4Zm6.68-7a4.87,4.87,0,0,1-.16,1.43,0.91,0.91,0,0,0,.64.16h0.79a2.35,2.35,0,0,0,2.23-1.11,4.7,4.7,0,0,0-1.75-.32A8.86,8.86,0,0,1,489.07,93.17Zm0.79,6.52a1.71,1.71,0,0,0,.87,1.51,3.11,3.11,0,0,0,1.67.56,1.6,1.6,0,0,0,1.75-1.27,6.25,6.25,0,0,0-3.34-.79h-1ZM508.15,107a1,1,0,0,0,1.11.48,0.64,0.64,0,0,0,.79-0.64,1.53,1.53,0,0,0-1.11-.48A0.64,0.64,0,0,0,508.15,107Zm1-12.24a1.66,1.66,0,0,0,1,1,12.06,12.06,0,0,0,1.51.4c0-1-.37-1.43-1.11-1.43h-1.43Zm4.13,4.13a1.26,1.26,0,0,0-.16.79,1.89,1.89,0,0,0,1.11,1.83,4.63,4.63,0,0,0,2.07.56,1.07,1.07,0,0,1,.32-0.79,1.59,1.59,0,0,0-1.11-1.75Zm6.52,1.75a8.55,8.55,0,0,0,1.11-3c-0.74-.32-1.43-0.58-2.07-0.79a1.26,1.26,0,0,0-.16.79,3.05,3.05,0,0,0,.4,1.51A13.82,13.82,0,0,1,519.76,100.65Z"/><path class="cls-1" d="M576.52,4a6.82,6.82,0,0,1,2.39.48,4,4,0,0,1,1.75-.56c0.64-.05,1.22-0.08,1.75-0.08a21.21,21.21,0,0,1,4.45.48q0.63,2.07,1.19,4.05a15.57,15.57,0,0,1,.56,4.21,14,14,0,0,1-.08,1.51,13.31,13.31,0,0,0-.08,1.51,26.25,26.25,0,0,0,.48,5,27.15,27.15,0,0,1,.48,5.17,3,3,0,0,1-1,2.23,8.82,8.82,0,0,0-5.17-1.19,33.51,33.51,0,0,1-5.49-.24,13.18,13.18,0,0,1-2.38-.32l-3.58-.72q-2-.39-4.05-0.64a34.76,34.76,0,0,0-4-.24,2,2,0,0,0-.72.16,2,2,0,0,1-.71.16,99.05,99.05,0,0,1-1.19,10.26,61.28,61.28,0,0,0-.87,10.26q0,3.34,3.18,3.34,2.7,0,5.25-.24t5.25-.24a1.45,1.45,0,0,1,1.43.64,5.76,5.76,0,0,1,.48,1.43q0.16,0.8.32,1.67a1.91,1.91,0,0,0,1,1.35,6.31,6.31,0,0,0-.64,2.86q0,2.23.16,4.29t0.16,4.29a6.68,6.68,0,0,1-.32,2.46,2.74,2.74,0,0,1-.71,1c-0.27.21-.56,0.42-0.87,0.64a2.42,2.42,0,0,0-.79,1,1.94,1.94,0,0,0-.32-0.48L573.34,69a21.18,21.18,0,0,1-4.45.48,14.35,14.35,0,0,1-2.54-.16,19.2,19.2,0,0,1-4.93,1q0.16,2.71.48,5.41a41.69,41.69,0,0,1,.32,4.77,24.49,24.49,0,0,1-.32,3.66,25.92,25.92,0,0,0-.32,4,1.56,1.56,0,0,0,.71.16H563a19.42,19.42,0,0,0,3.5-.32,19.55,19.55,0,0,1,3.5-.32q0.79,0,1.75.08c0.64,0.05,1.22.08,1.75,0.08a36.09,36.09,0,0,0,7.55-.79,36.22,36.22,0,0,1,7.55-.79q2.23,0,2.7.87a6.09,6.09,0,0,1,.48,2.78v18.6c-0.53-.1-1.06-0.24-1.59-0.4a5.51,5.51,0,0,0-1.59-.24,27,27,0,0,0-5.41.72q-3.34.72-6.2,1.19-9.06,1.43-17.81,3.5a77.8,77.8,0,0,1-18,2.07q-2.71,0-3.42-1.11a6.62,6.62,0,0,1-.72-3.5,30.66,30.66,0,0,1,.72-6.6,26.37,26.37,0,0,0,.71-5.49q0-1.11-.08-2.23c-0.05-.74-0.08-1.48-0.08-2.23a155.4,155.4,0,0,1,1-18q1-8.9,2.31-18a40.82,40.82,0,0,0,.48-6.36q0-1.27-.08-2.62T542,46.59q0-1.11.24-5.09t0.48-8.75q0.24-4.77.48-9.3t0.24-7.08a9.82,9.82,0,0,0-.08-1.35,6.27,6.27,0,0,1-.08-0.72,25.25,25.25,0,0,0,.64-6,1.79,1.79,0,0,1,.56.08,1.71,1.71,0,0,0,.56.08,14.5,14.5,0,0,0,4.29-.64,28.41,28.41,0,0,1,4.29-1q4.13-.63,8.11-1l8.11-.64a13.74,13.74,0,0,0,3.34-.72A10,10,0,0,1,576.52,4Zm-27,18v0.64a0.84,0.84,0,0,0,1,1,1.45,1.45,0,0,0,1-1.11,8.85,8.85,0,0,1,.48-1.59,3.94,3.94,0,0,1-1.35.4A1.24,1.24,0,0,0,549.49,21.94Zm0,2.07V25.6c0,0.85.26,1.33,0.79,1.43V25.92A2.61,2.61,0,0,0,549.49,24Zm2.23,61.53a1.24,1.24,0,0,0-.48,1.11,3,3,0,0,0,.32,1.19,1,1,0,0,0,1,.72V87.29A1.87,1.87,0,0,0,551.72,85.54Zm1.43-27.83v0.64a0.64,0.64,0,0,0,.64.79,0.38,0.38,0,0,0,.4-0.32,2.66,2.66,0,0,0,.08-0.64c0-.53-0.16-0.79-0.48-0.79a0.65,0.65,0,0,1-.48.16Zm1.27,36.57a1.93,1.93,0,0,0,1.27-1.11,8.5,8.5,0,0,0,.48-1.75,1.62,1.62,0,0,0-1.91,1.75,1.25,1.25,0,0,0,.16.8v0.32Zm6.68,5.09-3.18,1.91,0.16,0.48A14.44,14.44,0,0,0,560,101l1.91-1A3.44,3.44,0,0,0,561.1,99.38ZM558.24,14a11.28,11.28,0,0,0,4.13-1.43h-0.64a6,6,0,0,0-1.91.32A3.37,3.37,0,0,0,558.24,14Zm0.32,90.15c0,0.53.37,0.79,1.11,0.79a1,1,0,0,0,1.11-1.11c0-.32-0.27-0.48-0.8-0.48a3.48,3.48,0,0,0-.87.16A0.64,0.64,0,0,0,558.56,104.15Zm1.11-47.86a0.64,0.64,0,0,0-.16.48,0.56,0.56,0,0,0,.64.64,0.7,0.7,0,0,0,.79-0.79c0-.32-0.21-0.48-0.64-0.48l-0.32.16h-0.32Zm4.77-41.34a17.65,17.65,0,0,1,6-1.19,14.31,14.31,0,0,0,5.8-1.35l-0.48-.79q-2.86.8-5.72,1.51A40.44,40.44,0,0,0,564.44,14.95Zm0,85.86q1.75-.32,3.34-0.72a9.61,9.61,0,0,0,3-1.35A9.76,9.76,0,0,0,564.44,100.81Zm1.27,2.38h0.79a11.6,11.6,0,0,0,4.61-1,1.62,1.62,0,0,0-.72-0.16h-0.72A6.77,6.77,0,0,0,565.71,103.19Zm4.45-41.82-1.91-.64,1.11,1a2.36,2.36,0,0,1-1.11.64l2.86,0.48V61.37a7.36,7.36,0,0,1,.16-1.43l-0.4.79A1.2,1.2,0,0,1,570.16,61.37Zm1.75-44.84a2,2,0,0,0,.87.16h0.88a9.47,9.47,0,0,0,3.66-.79l-0.64-.64ZM576,99.85c0,0.42.16,0.64,0.48,0.64a1.08,1.08,0,0,1,.79-0.32,0.91,0.91,0,0,0-.64-0.64,0.65,0.65,0,0,1-.48.16Zm0.16-4.77a11.06,11.06,0,0,0,3.82.64,5.88,5.88,0,0,0,3.34-1,7.09,7.09,0,0,1-1-.08,7.47,7.47,0,0,0-1-.08,20.75,20.75,0,0,0-2.54.16Zm5.72,5.41a7.42,7.42,0,0,1-2.62.48,5.82,5.82,0,0,0-2.62.64q2.07-.16,4.05-0.16a10,10,0,0,0,3.9-.79,8.12,8.12,0,0,0-.87-0.24,4.52,4.52,0,0,0-.87-0.08,5.62,5.62,0,0,1,.08-1,5.82,5.82,0,0,0,.08-1,6.33,6.33,0,0,0-.56,1A6.43,6.43,0,0,1,581.93,100.49Zm-2.54-1.11a0.4,0.4,0,0,0,.4.4,3.54,3.54,0,0,0,.72.08c0.74,0,1.11-.26,1.11-0.79a0.64,0.64,0,0,0-.79-0.64,2.12,2.12,0,0,0-1,.24A0.76,0.76,0,0,0,579.39,99.38Z"/><path class="cls-1" d="M625.65,3.18q1.27,0,2.46.08c0.79,0.05,1.61.08,2.46,0.08a15.15,15.15,0,0,1,6.2,1.51,28.87,28.87,0,0,1,6.28,3.9,28.41,28.41,0,0,1,5.09,5.33,13.77,13.77,0,0,1,2.62,5.8q0.48,3,1,5.88T653,31.64c-0.53.42-1.11,0.93-1.75,1.51a2.84,2.84,0,0,1-1.91.87,4.21,4.21,0,0,1-1.59-.32,4.28,4.28,0,0,0-1.59-.32,14.6,14.6,0,0,0-4.13.79,13,13,0,0,0-3.82,1.75,8,8,0,0,1-1.35-3q-0.56-2.06-1.19-4.05a15.25,15.25,0,0,0-1.59-3.5,2.78,2.78,0,0,0-2.38-1.51A14.45,14.45,0,0,0,629.95,25q-1.11.8-2.23,1.75a22.69,22.69,0,0,0-2,1.91,2.67,2.67,0,0,0-.87,1.59,5.26,5.26,0,0,0,.64,2.78,5.78,5.78,0,0,0,1.67,1.75,22.06,22.06,0,0,0,2.23,1.35,21.17,21.17,0,0,1,2.31,1.43,16.57,16.57,0,0,1,3.42,3.5,6.36,6.36,0,0,0,4.21,2.54,9.68,9.68,0,0,1,2.54,3.1,10.76,10.76,0,0,0,2.38,3.1,26.18,26.18,0,0,0,2.15,1.67,7.57,7.57,0,0,1,1.83,1.83,15.07,15.07,0,0,1,2.54,3.82q1,2.07,1.75,4.21t1.67,4.21a18.81,18.81,0,0,0,2.31,4q0.32,3.66.72,7.31a68,68,0,0,1,.4,7.31,26.88,26.88,0,0,1-1.91,9.38,36.1,36.1,0,0,1-4.45,8.59,7.2,7.2,0,0,0-1.43,3.18,5.61,5.61,0,0,1-1.59,3,18.24,18.24,0,0,1-3.34,2.54,29,29,0,0,1-4.45,2.23,32.91,32.91,0,0,1-4.77,1.51,18.48,18.48,0,0,1-4.13.56,15.07,15.07,0,0,1-5.88-1.27,22.59,22.59,0,0,1-5.25-3,11,11,0,0,1-2.46-2.23,7.9,7.9,0,0,0-2.62-2.07,17.78,17.78,0,0,1-5.49-4.77,22.74,22.74,0,0,1-3.34-6.36,33.08,33.08,0,0,1-1.59-7.23,69.38,69.38,0,0,1-.4-7.39q0-1.59.08-3.42a7.24,7.24,0,0,1,.87-3.26l2.7-.32a6.22,6.22,0,0,0,2.54-1,26.37,26.37,0,0,0,3,.24,42.59,42.59,0,0,1,4.29.4,20.14,20.14,0,0,1,4,1Q623.74,75,623.9,76a31.6,31.6,0,0,1,.4,3.82,7.28,7.28,0,0,0,1.19,3.66,26.23,26.23,0,0,1,2.23,4.61,20.44,20.44,0,0,0,6.2,1,18.55,18.55,0,0,0,1.83-2.15,4.59,4.59,0,0,0,.87-2.78,7.71,7.71,0,0,0-1-3.42,32.71,32.71,0,0,0-2.46-4,22.21,22.21,0,0,0-3.1-3.5,7.2,7.2,0,0,0-3.1-1.83l-5.09-5.88a18.18,18.18,0,0,0-4-3.26,33.65,33.65,0,0,1-4.13-2.94,36.54,36.54,0,0,1-5.25-5,24.59,24.59,0,0,1-3.34-5.09,21.84,21.84,0,0,1-1.83-5.72,40.24,40.24,0,0,1-.56-7.08q0-2.54.16-4.93t0.16-4.77a15.63,15.63,0,0,1,.64-3.82,37.67,37.67,0,0,1,1.75-5,36.85,36.85,0,0,1,2.7-5.17,24.13,24.13,0,0,1,3.34-4.29,45.87,45.87,0,0,0,7.24-3.26A14.24,14.24,0,0,1,625.65,3.18ZM613.09,32.75a1.72,1.72,0,0,0-.48,1.27c0,0.74.26,1.11,0.79,1.11a0.55,0.55,0,0,0,.48-0.48,2.68,2.68,0,0,0,.16-0.79A0.92,0.92,0,0,0,613.09,32.75ZM615,40.07a1.08,1.08,0,0,0-.32.8,1.87,1.87,0,0,0,.24.79,0.76,0.76,0,0,0,.72.48,0.64,0.64,0,0,0,.64-0.8A1.13,1.13,0,0,0,615,40.07Zm0.48,45.47q0.16,1.11.24,2.07a2.76,2.76,0,0,0,.87,1.75V88.56A4.09,4.09,0,0,0,615.48,85.54Zm1.91-6.36a0.91,0.91,0,0,0-.16.64,0.42,0.42,0,0,0,.48.48,0.7,0.7,0,0,0,.79-0.79A0.42,0.42,0,0,0,618,79l-0.32.16h-0.32ZM618.18,46v0.32a1.12,1.12,0,0,0,1.27,1.27c0.42,0,.64-0.16.64-0.48a1.2,1.2,0,0,0-1.43-1.27A0.65,0.65,0,0,1,618.18,46Zm1.27,40.86a0.45,0.45,0,0,0-.16.24,0.45,0.45,0,0,1-.16.24c0,0.85.32,1.27,1,1.27,0.32,0,.48-0.26.48-0.79,0-.74-0.27-1.11-0.79-1.11-0.11,0-.16,0-0.16.08S619.56,86.81,619.45,86.81Zm0.32,4.45a0.91,0.91,0,0,0-.32.64,1.12,1.12,0,0,0,1.27,1.27,0.92,0.92,0,0,0,.16-0.64A1.06,1.06,0,0,0,619.77,91.27Zm6.2,8.59a0.91,0.91,0,0,0,.64-0.64,3.47,3.47,0,0,0-.64-0.79l-0.4.4a0.66,0.66,0,0,0-.24.4A0.9,0.9,0,0,0,626,99.85Zm0.64,7,2.38,1.43V108a1.2,1.2,0,0,0-1.43-1.27,0.92,0.92,0,0,0-.64.16h-0.32Zm5.09-6a0.65,0.65,0,0,0-.16.48c0,0.53.37,0.79,1.11,0.79a0.56,0.56,0,0,0,.64-0.64,0.78,0.78,0,0,0-1-.79A0.92,0.92,0,0,1,631.7,100.81Zm1.11-49.29v0.32a2,2,0,0,0,.48,1.35,1.58,1.58,0,0,0,1.27.56,2.68,2.68,0,0,0-.48-1.51A1.46,1.46,0,0,0,632.81,51.52Zm1,54.85a0.9,0.9,0,0,0,.64.64,0.65,0.65,0,0,0,.4-0.24l0.4-.4-0.64-.64A3.39,3.39,0,0,0,633.76,106.37Zm8.11-6H642q0.79,0,.79-1.11a0.92,0.92,0,0,0-.32-0.64c-0.53,0-.8.37-0.8,1.11V100a0.14,0.14,0,0,0,.16.16v0.16Zm0-5.09a4.93,4.93,0,0,0,1.43-3.18q0.16-1.91.48-3.66A2.35,2.35,0,0,0,643,89.6a16.1,16.1,0,0,0-.56,1.91,14,14,0,0,0-.32,2.15A7.42,7.42,0,0,1,641.87,95.24Zm2.07-14.47a8.13,8.13,0,0,0-.4,2c-0.05.69-.13,1.35-0.24,2a8.93,8.93,0,0,1,.71-1.43,2.41,2.41,0,0,1,1.19-1,2.27,2.27,0,0,0-.56-0.87Z"/></svg>